<svg width="100" height="39" viewBox="0 0 100 39" fill="none" xmlns="http://www.w3.org/2000/svg">
<path d="M18.9769 0.00148255C19.2442 0.00272917 19.5113 0.0014852 19.7786 8.19578e-06C24.779 -0.0048982 29.4914 2.19344 33.0283 5.68602C35.7465 8.43244 37.6259 12.0189 38.3366 15.8259C38.3721 16.0069 38.3721 16.0069 38.4084 16.1916C38.7777 18.4258 38.6821 20.7914 38.2642 23.0106C38.2256 23.2313 38.2006 23.4543 38.1775 23.6772C38.0836 24.3406 37.896 24.6916 37.3648 25.113C37.0074 25.3699 36.6356 25.5953 36.2538 25.8134C36.1801 25.8559 36.1064 25.8985 36.0304 25.9423C32.9569 27.6767 29.5092 28.144 26.093 27.2433C25.4626 27.0542 24.8596 26.8219 24.2561 26.561C24.177 26.527 24.0979 26.493 24.0164 26.458C23.6401 26.2893 23.3256 26.1385 23.0628 25.8134C23.1869 25.7679 23.311 25.7224 23.4389 25.6755C23.6222 25.6058 23.8054 25.5356 23.9885 25.465C24.0947 25.4242 24.2009 25.3833 24.3103 25.3412C27.1397 24.209 29.0822 22.2197 30.311 19.4311C30.7555 18.2163 30.8801 16.9658 30.8732 15.6808C30.8725 15.534 30.8718 15.3873 30.871 15.2361C30.819 12.5511 29.7169 10.2513 27.8679 8.32806C25.7857 6.36735 23.0983 5.42409 20.2704 5.46555C17.4156 5.55775 14.9557 6.8033 12.996 8.85792C12.1686 9.81761 11.5046 10.9202 10.8082 11.9765C10.3331 12.6966 9.85043 13.4096 9.35112 14.113C8.90801 14.7372 8.47566 15.3663 8.0548 16.006C7.69905 16.5447 7.33487 17.0777 6.97183 17.6115C6.89713 17.7213 6.82243 17.8312 6.74546 17.9443C6.59146 18.1707 6.43743 18.3971 6.28339 18.6235C5.91715 19.1618 5.55137 19.7004 5.18555 20.239C5.04152 20.451 4.89748 20.663 4.75344 20.875C4.45804 21.3099 4.16275 21.7448 3.86754 22.1797C3.01766 23.4317 2.16573 24.6821 1.30925 25.9296C0.538578 25.1561 0.447239 23.4909 0.267862 22.4456C0.238119 22.283 0.238119 22.283 0.207775 22.1172C0.0388603 21.1292 -0.00397533 20.1662 0.00028171 19.1648C0.000492628 19.0858 0.000703548 19.0067 0.000920857 18.9253C0.00642561 17.6978 0.0867179 16.5544 0.383572 15.3614C0.423427 15.1859 0.463198 15.0103 0.502898 14.8347C1.24223 11.695 2.69643 8.80307 4.89401 6.43907C5.09887 6.21796 5.29129 5.99187 5.48206 5.7586C7.73479 3.10459 11.2141 1.4213 14.5002 0.496298C14.6351 0.457525 14.7699 0.418752 14.9088 0.378803C16.2526 0.0538259 17.6023 -0.00611356 18.9769 0.00148255Z" fill="#DE0101"/>
<path d="M20.5376 9.62666C20.6231 9.62685 20.7086 9.62704 20.7967 9.62723C22.3112 9.66067 23.7937 10.2818 24.9201 11.2961C26.3032 12.7471 26.7251 14.3827 26.6946 16.3311C26.629 17.966 25.819 19.2685 24.667 20.3908C23.5663 21.3232 22.1659 21.7943 20.74 21.7917C20.644 21.7916 20.5479 21.7916 20.4489 21.7916C19.5368 21.7748 18.6563 21.6155 17.8577 21.1448C17.536 21.0125 17.3756 21.0451 17.0518 21.1674C16.6928 21.5557 16.4179 22.0044 16.1261 22.4449C16.064 22.5302 16.002 22.6156 15.9381 22.7035C15.5488 23.2607 15.4508 23.6232 15.5475 24.303C15.8408 24.8783 16.1829 25.362 16.6034 25.8491C16.6874 25.9468 16.6874 25.9468 16.773 26.0466C19.4929 29.1821 23.0774 30.9908 27.1186 31.7356C27.2337 31.757 27.3489 31.7784 27.4675 31.8005C28.161 31.8949 28.8645 31.8842 29.563 31.888C29.6394 31.8884 29.7158 31.8889 29.7946 31.8893C31.1014 31.8922 32.3385 31.7491 33.6102 31.4403C33.8748 31.3763 34.141 31.3224 34.4083 31.2711C31.7267 35.0676 27.2922 37.5528 22.7826 38.4083C17.7627 39.1838 12.478 38.2637 8.29531 35.2722C7.50835 34.6858 6.76899 34.0393 6.0593 33.3615C5.99585 33.3009 5.9324 33.2404 5.86703 33.1781C3.86546 31.2564 3.86546 31.2564 3.51367 30.4581C3.63067 29.8958 4.04156 29.4036 4.3598 28.9339C4.42136 28.8421 4.48291 28.7504 4.54634 28.6559C4.74138 28.3658 4.93733 28.0763 5.13362 27.7871C5.19447 27.6973 5.25533 27.6076 5.31803 27.5152C5.62537 27.0627 5.93361 26.6109 6.24236 26.1594C6.66482 25.5415 7.08531 24.9223 7.50568 24.303C8.04488 23.5089 8.58471 22.7153 9.12562 21.9223C9.95659 20.7041 10.785 19.4841 11.6134 18.2641C11.9075 17.831 12.2016 17.3979 12.4957 16.9649C12.5673 16.8594 12.6389 16.754 12.7126 16.6454C13.0612 16.1323 13.4101 15.6194 13.7599 15.1072C13.8254 15.0112 13.8909 14.9153 13.9584 14.8164C14.0857 14.6301 14.213 14.4439 14.3404 14.2577C14.6041 13.8717 14.8664 13.4853 15.12 13.0925C16.3851 11.136 18.0842 9.62101 20.5376 9.62666Z" fill="#DE0101"/>
<path d="M89.9326 5.2252C90.0469 5.2241 90.1612 5.22299 90.279 5.22185C90.464 5.22201 90.464 5.22201 90.6527 5.22217C90.8429 5.22142 90.8429 5.22142 91.037 5.22066C91.3054 5.21999 91.5737 5.21994 91.8421 5.22044C92.253 5.22081 92.6638 5.21808 93.0747 5.21514C93.3353 5.21487 93.5958 5.21479 93.8564 5.21491C93.9795 5.21384 94.1026 5.21277 94.2294 5.21167C94.344 5.21239 94.4587 5.21312 94.5769 5.21386C94.6776 5.21379 94.7783 5.21372 94.882 5.21364C95.2202 5.26749 95.378 5.3613 95.6178 5.6055C95.7699 6.27294 95.5707 7.04162 95.4406 7.70271C95.4227 7.79901 95.4047 7.89531 95.3862 7.99452C95.3102 8.4015 95.2321 8.80806 95.1539 9.21463C94.7021 10.9142 94.7021 10.9142 94.9311 12.5413C95.2706 12.7663 95.6144 12.7385 96.0079 12.7368C96.1326 12.7387 96.1326 12.7387 96.2599 12.7406C96.5256 12.7446 96.7913 12.7464 97.057 12.7477C97.4064 12.7494 97.7557 12.7533 98.1051 12.7586C98.2252 12.7581 98.2252 12.7581 98.3477 12.7575C98.7041 12.7631 98.9439 12.789 99.2569 12.9665C99.4363 13.1542 99.4363 13.1542 99.4724 13.4164C99.4272 13.8332 99.3777 14.2486 99.3206 14.6639C99.3062 14.778 99.2918 14.892 99.2769 15.0095C99.2272 15.3981 99.1732 15.7858 99.1181 16.1737C99.093 16.365 99.093 16.365 99.0674 16.5602C99.0489 16.6818 99.0304 16.8033 99.0114 16.9285C98.9958 17.0375 98.9801 17.1465 98.964 17.2588C98.8156 17.6895 98.6444 17.8763 98.2792 18.1479C97.9425 18.227 97.6175 18.2236 97.273 18.2178C97.1771 18.2187 97.0811 18.2197 96.9823 18.2206C96.6768 18.2233 96.3716 18.2222 96.0662 18.2205C95.76 18.2201 95.4539 18.2205 95.1477 18.2229C94.9575 18.2243 94.7672 18.224 94.5771 18.2218C94.0929 18.2203 94.0929 18.2203 93.6561 18.4057C93.5058 18.6624 93.4517 18.8788 93.399 19.1723C93.3775 19.2878 93.3561 19.4033 93.334 19.5223C93.3121 19.6484 93.2901 19.7745 93.2675 19.9045C93.2436 20.0356 93.2197 20.1667 93.195 20.3018C93.1428 20.5892 93.0912 20.8767 93.0401 21.1643C92.952 21.6592 92.8605 22.1534 92.7689 22.6477C92.7215 22.9047 92.6742 23.1618 92.6269 23.4189C92.5962 23.5858 92.5654 23.7527 92.5346 23.9197C91.957 26.298 91.957 26.298 92.349 28.5709C92.722 28.9453 92.94 29.0543 93.4727 29.0953C93.6968 29.0944 93.6968 29.0944 93.9256 29.0935C94.0744 29.0941 94.2233 29.0947 94.3767 29.0953C94.7944 29.0655 95.1099 28.9705 95.5021 28.8322C96.246 28.882 96.246 28.882 96.5435 29.1806C96.6738 29.5816 96.7556 29.9958 96.8472 30.4073C96.8738 30.5193 96.9003 30.6314 96.9277 30.7468C97.2474 32.1613 97.2474 32.1613 97.1221 32.7808C96.7004 33.308 96.0091 33.4642 95.3864 33.6663C95.2857 33.701 95.185 33.7357 95.0813 33.7715C93.7124 34.2248 92.3588 34.3306 90.9243 34.3268C90.7827 34.3287 90.6411 34.3305 90.4952 34.3325C88.9232 34.3333 87.3791 34.0304 86.2019 32.9187C85.7993 32.4869 85.542 32.0477 85.3196 31.5033C85.2743 31.4075 85.2289 31.3117 85.1822 31.213C85.0507 30.807 85.0009 30.417 84.9725 29.9936C84.9635 29.8792 84.9546 29.7648 84.9454 29.647C84.881 28.0036 85.2248 26.3907 85.5082 24.7793C85.5503 24.5397 85.592 24.3 85.6335 24.0603C85.7745 23.2473 85.9174 22.4347 86.0618 21.6224C86.1855 20.9262 86.3079 20.2297 86.4288 19.5329C86.4444 19.4432 86.4599 19.3535 86.476 19.2611C86.5081 19.0761 86.5402 18.8911 86.5723 18.7061C86.8261 17.2444 87.0828 15.7833 87.3436 14.3228C87.3811 14.1131 87.3811 14.1131 87.4193 13.8992C87.5208 13.3303 87.6224 12.7615 87.7242 12.1927C88.0758 10.2305 88.0758 10.2305 88.4067 8.26478C88.4273 8.13852 88.4273 8.13852 88.4483 8.00971C88.5081 7.64089 88.5667 7.27191 88.6237 6.90265C88.6431 6.78058 88.6625 6.65852 88.6824 6.53276C88.6981 6.43062 88.7138 6.32848 88.7299 6.22325C88.8905 5.51413 89.198 5.22911 89.9326 5.2252Z" fill="#DE0101"/>
<path d="M63.0272 12.7606C63.267 13.108 63.2149 13.3047 63.154 13.7102C63.0709 14.1304 62.9425 14.5301 62.8044 14.9349C62.76 15.067 62.76 15.067 62.7148 15.2018C62.6525 15.3863 62.5898 15.5707 62.5266 15.7549C62.4304 16.0366 62.3367 16.3192 62.2432 16.6018C62.1821 16.7818 62.1209 16.9616 62.0595 17.1415C62.0181 17.2678 62.0181 17.2678 61.9758 17.3966C61.8169 17.851 61.6933 18.1616 61.2518 18.3804C60.7555 18.355 60.3077 18.2601 59.8271 18.1408C58.5555 17.8541 57.4633 18.0439 56.3558 18.736C55.6001 19.5651 55.2522 20.5181 55.0758 21.6103C55.0535 21.7358 55.0313 21.8613 55.0083 21.9906C54.9427 22.3638 54.8793 22.7373 54.8165 23.111C54.7323 23.6089 54.6452 24.1064 54.5587 24.6039C54.52 24.8264 54.4814 25.0489 54.4428 25.2714C54.4232 25.3842 54.4037 25.497 54.3835 25.6133C54.2835 26.1896 54.1835 26.7658 54.0836 27.3422C54.0638 27.4566 54.0439 27.571 54.0235 27.6888C53.9072 28.3601 53.7931 29.0317 53.6806 29.7037C53.6117 30.1131 53.5408 30.5222 53.4694 30.9312C53.4365 31.1223 53.4045 31.3135 53.3732 31.5049C53.3301 31.7687 53.2841 32.0319 53.2375 32.2951C53.2125 32.4429 53.1875 32.5908 53.1617 32.7431C53.0037 33.2301 52.8828 33.4211 52.4578 33.71C52.0302 33.7915 51.6114 33.7859 51.1773 33.779C51.0534 33.779 50.9294 33.779 50.8018 33.779C50.5402 33.7783 50.2787 33.7763 50.0172 33.7729C49.6167 33.7681 49.2164 33.7682 48.8159 33.769C48.5616 33.7678 48.3074 33.7663 48.0531 33.7644C47.9333 33.7644 47.8135 33.7644 47.69 33.7644C47.5784 33.7625 47.4668 33.7607 47.3518 33.7588C47.2539 33.7578 47.1559 33.7568 47.055 33.7558C46.7184 33.6981 46.5616 33.6089 46.3252 33.3616C46.1748 32.567 46.3615 31.6916 46.5032 30.9042C46.5312 30.7414 46.5312 30.7414 46.5597 30.5753C46.6203 30.224 46.6825 29.873 46.7446 29.5219C46.7876 29.2748 46.8304 29.0277 46.8732 28.7806C46.979 28.1711 47.086 27.5617 47.1934 26.9525C47.2591 26.5788 47.3242 26.205 47.389 25.8311C47.456 25.4451 47.5234 25.0592 47.5907 24.6734C47.6039 24.5979 47.617 24.5225 47.6305 24.4448C47.7938 23.5089 47.9638 22.5745 48.141 21.6412C48.2603 21.0118 48.3779 20.3821 48.4947 19.7522C48.5179 19.6274 48.541 19.5026 48.5649 19.374C48.8757 17.682 49.1091 16.0169 49.1581 14.2961C49.1621 14.1651 49.166 14.0342 49.17 13.8992C49.1719 13.7321 49.1719 13.7321 49.1738 13.5616C49.23 13.1905 49.2741 13.0481 49.565 12.806C49.9165 12.7358 50.2632 12.7409 50.6205 12.7443C50.7242 12.7438 50.8279 12.7434 50.9347 12.7429C51.1541 12.7426 51.3734 12.7434 51.5927 12.7454C51.9283 12.7479 52.2635 12.7454 52.5991 12.7424C52.8122 12.7427 53.0253 12.7433 53.2384 12.7443C53.3888 12.7428 53.3888 12.7428 53.5423 12.7414C54.2338 12.7522 54.2338 12.7522 54.6021 13.0149C54.8324 13.3614 54.8563 13.6732 54.8877 14.0834C55.5711 14.1813 55.5711 14.1813 56.1732 13.9051C56.3394 13.7424 56.505 13.5788 56.6699 13.4147C58.2008 12.0886 61.2778 11.5549 63.0272 12.7606Z" fill="#DE0101"/>
<path d="M66.4529 12.7632C66.6284 12.7621 66.6284 12.7621 66.8074 12.761C66.9336 12.7621 67.0598 12.7631 67.1899 12.7642C67.3195 12.7642 67.4492 12.7641 67.5828 12.7641C67.8571 12.7643 68.1314 12.7655 68.4057 12.7674C68.8262 12.7701 69.2467 12.7698 69.6672 12.769C69.9335 12.7696 70.1997 12.7705 70.4659 12.7715C70.5921 12.7714 70.7183 12.7713 70.8483 12.7712C71.0238 12.7728 71.0238 12.7728 71.2029 12.7745C71.3059 12.7751 71.4089 12.7756 71.5151 12.7761C71.7785 12.8064 71.7785 12.8064 72.1256 13.0387C72.2716 13.7209 72.2227 14.2824 72.0868 14.9599C72.0689 15.0552 72.051 15.1504 72.0326 15.2486C71.9937 15.4556 71.9542 15.6626 71.9141 15.8694C71.8035 16.4403 71.6978 17.0121 71.5914 17.5838C71.5688 17.7046 71.5462 17.8255 71.5229 17.95C71.2625 19.3487 71.0291 20.7519 70.795 22.1552C70.433 24.3176 70.0565 26.4768 69.6581 28.6328C69.497 29.5065 69.3389 30.3792 69.2085 31.2581C69.1887 31.3897 69.1689 31.5213 69.1485 31.6569C69.1148 31.8871 69.0831 32.1175 69.054 32.3483C69.0398 32.4456 69.0256 32.5428 69.0109 32.643C69.0005 32.7242 68.99 32.8054 68.9792 32.8891C68.8243 33.288 68.6537 33.4565 68.3072 33.7105C67.8817 33.7964 67.4636 33.7919 67.0308 33.7876C66.9071 33.7881 66.7834 33.7887 66.656 33.7893C66.395 33.7897 66.134 33.7886 65.8729 33.7862C65.4736 33.7831 65.0747 33.7861 64.6754 33.7899C64.4215 33.7895 64.1677 33.7887 63.9138 33.7876C63.7946 33.7888 63.6754 33.7899 63.5525 33.7911C63.0307 33.7826 62.7167 33.7574 62.2611 33.4879C61.9609 32.9564 62.066 32.5523 62.1745 31.9685C62.2024 31.7845 62.2302 31.6006 62.258 31.4167C62.2902 31.2246 62.3228 31.0326 62.3558 30.8407C62.3826 30.6824 62.3826 30.6824 62.4099 30.521C62.4684 30.1759 62.5275 29.831 62.5868 29.4861C62.6285 29.2412 62.6702 28.9964 62.712 28.7515C63.0009 27.0624 63.303 25.3759 63.6124 23.6905C63.851 22.3903 64.0807 21.089 64.2994 19.7853C64.3339 19.5793 64.3339 19.5793 64.3692 19.369C64.4815 18.6987 64.593 18.0282 64.7034 17.3576C64.8871 16.2486 65.0758 15.1412 65.3078 14.0412C65.3337 13.9127 65.3337 13.9127 65.3601 13.7815C65.5192 13.059 65.6953 12.7626 66.4529 12.7632Z" fill="#DE0101"/>
<path d="M77.5724 12.7477C77.7479 12.7461 77.7479 12.7461 77.9269 12.7444C78.0525 12.7458 78.1781 12.7471 78.3075 12.7484C78.437 12.7482 78.5665 12.7481 78.7 12.7479C78.9736 12.7481 79.2472 12.7494 79.5208 12.7518C79.9403 12.7552 80.3597 12.7542 80.7793 12.7527C81.045 12.7534 81.3106 12.7544 81.5763 12.7557C81.7022 12.7553 81.828 12.755 81.9577 12.7546C82.1326 12.7568 82.1326 12.7568 82.3111 12.7591C82.4651 12.76 82.4651 12.76 82.6222 12.761C82.9417 12.8158 83.0455 12.8908 83.232 13.1544C83.3219 14.1252 83.1078 15.0821 82.9427 16.036C82.9115 16.2203 82.8803 16.4045 82.8491 16.5888C82.5886 18.1201 82.3103 19.6481 82.0307 21.1759C81.7192 22.8792 81.4225 24.5845 81.1347 26.292C81.096 26.5212 81.0573 26.7503 81.0186 26.9794C80.8005 28.27 80.8005 28.27 80.584 29.5609C80.5059 30.0288 80.4267 30.4964 80.3467 30.9639C80.318 31.1325 80.2898 31.301 80.262 31.4697C80.2241 31.699 80.1848 31.9281 80.1453 32.1572C80.124 32.2843 80.1026 32.4113 80.0806 32.5422C79.9835 32.9315 79.8451 33.247 79.645 33.5939C79.3635 33.7352 79.1782 33.727 78.8635 33.7306C78.6921 33.7328 78.6921 33.7328 78.5171 33.7351C78.3313 33.7364 78.3313 33.7364 78.1416 33.7377C77.9512 33.7391 77.9512 33.7391 77.7568 33.7406C77.4878 33.7422 77.2187 33.7434 76.9497 33.7443C76.5377 33.7463 76.1259 33.7514 75.714 33.7566C75.4529 33.7577 75.1918 33.7587 74.9307 33.7595C74.8072 33.7615 74.6838 33.7636 74.5566 33.7657C73.7128 33.7632 73.7128 33.7632 73.315 33.5139C72.7522 32.5056 73.5027 30.3271 73.6931 29.2317C73.7348 28.9889 73.7765 28.7461 73.8181 28.5033C74.1106 26.8038 74.4159 25.1067 74.7266 23.4105C75.0805 21.4781 75.4124 19.5423 75.7352 17.6045C75.823 17.0786 75.9125 16.553 76.0034 16.0276C76.041 15.8081 76.0779 15.5885 76.1143 15.3689C76.1703 15.0319 76.2287 14.6953 76.2876 14.3588C76.3041 14.2563 76.3206 14.1537 76.3376 14.0481C76.3548 13.9528 76.3719 13.8575 76.3896 13.7593C76.4038 13.6759 76.418 13.5925 76.4326 13.5065C76.6453 12.9372 76.9882 12.7479 77.5724 12.7477Z" fill="#DE0101"/>
<path d="M83.7034 4.01679C84.2121 4.41351 84.5647 4.86256 84.7407 5.48933C84.8781 6.62318 84.7009 7.6629 84.032 8.5959C83.3257 9.43882 82.3739 10.0567 81.2666 10.1556C80.995 10.172 80.7243 10.1804 80.4522 10.1855C80.3648 10.1881 80.2773 10.1907 80.1872 10.1934C79.4092 10.1901 78.8309 9.95188 78.2329 9.4542C77.5858 8.70214 77.3925 8.0285 77.423 7.03989C77.5395 5.90427 78.0206 5.06975 78.8775 4.32663C80.3361 3.22864 82.1339 2.99485 83.7034 4.01679Z" fill="#DE0101"/>
<path d="M72.4791 3.86413C73.1271 4.37193 73.583 4.94129 73.6863 5.78215C73.6877 7.14337 73.473 8.08043 72.5274 9.0847C71.3558 10.0801 70.0197 10.2404 68.5435 10.1606C67.8035 10.0793 67.3295 9.66376 66.8743 9.10466C66.389 8.38275 66.2416 7.62439 66.3464 6.76747C66.5943 5.62694 67.216 4.79765 68.1471 4.10955C69.467 3.27559 71.0897 3.02844 72.4791 3.86413Z" fill="#DE0101"/>
</svg>
